<?xml version="1.0" encoding="UTF-8" standalone="no"?>
<!-- Created with Inkscape (http://www.inkscape.org/) -->

<svg
   xmlns:dc="http://purl.org/dc/elements/1.1/"
   xmlns:cc="http://creativecommons.org/ns#"
   xmlns:rdf="http://www.w3.org/1999/02/22-rdf-syntax-ns#"
   xmlns:svg="http://www.w3.org/2000/svg"
   xmlns="http://www.w3.org/2000/svg"
   xmlns:sodipodi="http://sodipodi.sourceforge.net/DTD/sodipodi-0.dtd"
   xmlns:inkscape="http://www.inkscape.org/namespaces/inkscape"
   width="281.4285"
   height="281.4285"
   id="svg2"
   version="1.1"
   inkscape:version="0.92.4 (5da689c313, 2019-01-14)"
   sodipodi:docname="favicon2.svg"
   inkscape:export-filename="C:\Users\Samuel\Documents\newhome\favicon2.png"
   inkscape:export-xdpi="5.4578695"
   inkscape:export-ydpi="5.4578695">
  <defs
     id="defs4" />
  <sodipodi:namedview
     id="base"
     pagecolor="#ffffff"
     bordercolor="#666666"
     borderopacity="1.0"
     inkscape:pageopacity="0.0"
     inkscape:pageshadow="2"
     inkscape:zoom="2"
     inkscape:cx="207.12956"
     inkscape:cy="140.34812"
     inkscape:document-units="px"
     inkscape:current-layer="layer1"
     showgrid="false"
     inkscape:object-nodes="true"
     inkscape:object-paths="false"
     inkscape:snap-global="false"
     inkscape:snap-bbox="true"
     inkscape:bbox-nodes="true"
     inkscape:snap-bbox-midpoints="true"
     fit-margin-top="0"
     fit-margin-left="0"
     fit-margin-right="0"
     fit-margin-bottom="0"
     inkscape:window-width="1920"
     inkscape:window-height="1017"
     inkscape:window-x="-8"
     inkscape:window-y="-8"
     inkscape:window-maximized="1"
     inkscape:snap-page="true"
     inkscape:snap-bbox-edge-midpoints="true" />
  <metadata
     id="metadata7">
    <rdf:RDF>
      <cc:Work
         rdf:about="">
        <dc:format>image/svg+xml</dc:format>
        <dc:type
           rdf:resource="http://purl.org/dc/dcmitype/StillImage" />
        <dc:title></dc:title>
      </cc:Work>
    </rdf:RDF>
  </metadata>
  <g
     inkscape:label="Layer 1"
     inkscape:groupmode="layer"
     id="layer1"
     transform="translate(-222.47325,-841.24689)">
    <rect
       style="opacity:1;fill:#443c69;fill-opacity:1;stroke:none;stroke-width:1;stroke-linecap:butt;stroke-linejoin:miter;stroke-miterlimit:4;stroke-dasharray:none;stroke-opacity:1;paint-order:stroke fill markers"
       id="rect4536"
       width="281.4285"
       height="281.4285"
       x="222.47325"
       y="841.24689"
       rx="70.357002"
       ry="70.357002" />
    <circle
       style="fill:#fbec6d;fill-opacity:1;stroke:none;stroke-width:2.83333349"
       id="path3868"
       cx="419.80399"
       cy="883.16193"
       r="6.0104074" />
    <path
       sodipodi:type="star"
       style="fill:#fbec6d;fill-opacity:1;stroke:none"
       id="path3862"
       sodipodi:sides="4"
       sodipodi:cx="381.13055"
       sodipodi:cy="67.882248"
       sodipodi:r1="32.534595"
       sodipodi:r2="17.243336"
       sodipodi:arg1="0.83151928"
       sodipodi:arg2="1.6169174"
       inkscape:flatsided="false"
       inkscape:rounded="0.22"
       inkscape:randomized="0"
       d="m 403.05086,91.923877 c -3.85552,3.515334 -17.50332,-6.576077 -22.71531,-6.81663 -5.21198,-0.240553 -19.73129,8.550837 -23.24663,4.69531 -3.51533,-3.855527 6.57608,-17.503323 6.81663,-22.715308 0.24056,-5.211986 -8.55083,-19.731296 -4.69531,-23.246631 3.85553,-3.515333 17.50333,6.576077 22.71531,6.816631 5.21199,0.240553 19.7313,-8.550838 23.24663,-4.69531 3.51534,3.855527 -6.57607,17.503322 -6.81663,22.715308 -0.24055,5.211986 8.55084,19.731296 4.69531,23.24663 z"
       transform="matrix(-0.11093015,0.1291636,-0.1291636,-0.11093015,317.6301,929.96479)"
       inkscape:transform-center-x="-0.99658445"
       inkscape:transform-center-y="-0.2506197" />
    <circle
       style="fill:#fbec6d;fill-opacity:1;stroke:none;stroke-width:1.33333325"
       id="path3874"
       cx="479.3981"
       cy="1035.4231"
       r="2.8284268" />
    <path
       inkscape:transform-center-y="-1.4709967"
       inkscape:transform-center-x="1.1326185"
       transform="matrix(0.29387874,0.09084328,-0.09084328,0.29387874,140.39027,971.4928)"
       d="m 403.05086,91.923877 c -3.85552,3.515334 -17.50332,-6.576077 -22.71531,-6.81663 -5.21198,-0.240553 -19.73129,8.550837 -23.24663,4.69531 -3.51533,-3.855527 6.57608,-17.503323 6.81663,-22.715308 0.24056,-5.211986 -8.55083,-19.731296 -4.69531,-23.246631 3.85553,-3.515333 17.50333,6.576077 22.71531,6.816631 5.21199,0.240553 19.7313,-8.550838 23.24663,-4.69531 3.51534,3.855527 -6.57607,17.503322 -6.81663,22.715308 -0.24055,5.211986 8.55084,19.731296 4.69531,23.24663 z"
       inkscape:randomized="0"
       inkscape:rounded="0.22"
       inkscape:flatsided="false"
       sodipodi:arg2="1.6169174"
       sodipodi:arg1="0.83151928"
       sodipodi:r2="17.243336"
       sodipodi:r1="32.534595"
       sodipodi:cy="67.882248"
       sodipodi:cx="381.13055"
       sodipodi:sides="4"
       id="path3876"
       style="fill:#fbec6d;fill-opacity:1;stroke:none"
       sodipodi:type="star" />
    <path
       style="fill:#ffedba;fill-opacity:1;stroke:none;stroke-width:1"
       d="M 140.71484,0 C 96.719023,73.128591 44.505971,183.50361 15.503906,255.20898 c 4.410616,5.48192 9.617958,10.29391 15.466797,14.23829 35.694352,7.97616 72.716407,11.98046 109.744137,11.98046 37.02738,0 74.04815,-4.00445 109.74219,-11.98046 5.84927,-3.94467 11.05598,-8.75782 15.4668,-14.24024 C 236.92158,183.5016 184.71022,73.127851 140.71484,0 Z"
       transform="translate(222.47325,841.24689)"
       id="path2990"
       inkscape:connector-curvature="0" />
    <path
       style="fill:#ffedba;fill-opacity:1;stroke:none;stroke-width:1"
       d="M 140.71484,20 C 99.448517,88.591703 50.959777,189.9445 21.162109,261.43945 33.83046,273.81289 51.168051,281.42773 70.357422,281.42773 H 211.07227 c 19.18949,0 36.52694,-7.6147 49.19531,-19.98828 C 230.46991,189.9445 181.98117,88.591703 140.71484,20 Z"
       transform="translate(222.47325,841.24689)"
       id="path4547"
       inkscape:connector-curvature="0" />
    <path
       style="fill:#ffb9f1;fill-opacity:1;stroke:none;stroke-width:1"
       d="m 381.19094,916.28793 c -19.58974,0.33388 -26.42277,26.12797 -51.68456,25.4305 -6.59058,-0.18196 -12.49591,-2.62573 -17.78231,-6.16127 -7.39432,14.61633 -14.69637,29.44576 -21.77034,44.19648 7.70298,10.20636 19.15984,24.27816 39.55265,24.40876 31.92582,0.2043 32.52572,-29.66716 52.62248,-30.79879 20.09676,-1.13165 30.00843,22.51655 43.05194,21.96966 6.01993,-0.90626 16.2,-5.16185 13.56697,-10.76158 -9.06302,-19.27328 -13.98813,-29.0598 -24.24933,-49.3348 -12.98292,-8.5542 -17.30667,-18.44379 -32.36958,-18.94134 -0.3175,-0.0105 -0.62696,-0.0129 -0.93792,-0.007 z"
       id="rect3776"
       inkscape:connector-curvature="0"
       sodipodi:nodetypes="csccsscccssc" />
    <path
       style="fill:#391900;fill-opacity:1;stroke:none;stroke-width:1"
       d="m 311.72016,1072.2771 c 0,11.9882 -9.71833,21.7065 -21.70647,21.7065 -11.98815,0 -21.70648,-9.7183 -21.70648,-21.7065 0,-11.9881 9.71833,-21.7064 21.70648,-21.7064 11.98814,0 21.70647,9.7183 21.70647,21.7064 z"
       id="path3808"
       inkscape:connector-curvature="0" />
    <path
       inkscape:connector-curvature="0"
       id="path3813"
       d="m 414.65488,1072.2771 c 0,11.9882 9.71834,21.7065 21.70649,21.7065 11.98816,0 21.70647,-9.7183 21.70647,-21.7065 0,-11.9881 -9.71831,-21.7064 -21.70647,-21.7064 -11.98815,0 -21.70649,9.7183 -21.70649,21.7064 z"
       style="fill:#391900;fill-opacity:1;stroke:none;stroke-width:1" />
    <path
       style="fill:#efa85c;fill-opacity:1;stroke:none;stroke-width:1"
       d="m 256.20117,231.72656 c -21.66208,8.6538 -43.31389,11.27628 -63.42383,12.67578 -3.45966,0.1238 -4.6851,3.54268 -5.25586,4.76368 -1.02532,10.4588 -2.0489,19.94159 -3.07421,30.40039 0.008,-6.7e-4 0.0156,-9.6e-4 0.0234,-0.002 -0.0628,0.61415 -0.12661,1.24992 -0.18945,1.86328 h 26.79102 c 22.24106,0 41.99431,-10.22652 54.86914,-26.24218 -2.94579,-7.30574 -5.97837,-14.62983 -9.74024,-23.45899 z"
       id="path3774"
       inkscape:connector-curvature="0"
       transform="translate(222.47325,841.24689)" />
    <path
       style="fill:#efa85c;fill-opacity:1;stroke:none;stroke-width:1"
       d="m 25.226562,231.72656 c -3.761856,8.82916 -6.794442,16.15325 -9.740234,23.45899 4.421255,5.49982 9.64385,10.32603 15.511719,14.27929 0.0424,0.009 0.08454,0.0198 0.126953,0.0293 6.296785,4.23305 13.315804,7.47911 20.84375,9.50977 0.65668,0.17714 1.320089,0.33761 1.984375,0.49609 0.370262,0.0878 0.740742,0.17387 1.113281,0.25586 0.572599,0.12675 1.146737,0.25056 1.72461,0.36328 0.54832,0.10632 1.10143,0.20134 1.654296,0.29492 0.673389,0.11468 1.349348,0.22098 2.029297,0.31641 0.729838,0.10179 1.460293,0.19795 2.197266,0.27734 0.416405,0.0451 0.835278,0.0793 1.253906,0.11719 0.688983,0.0619 1.381482,0.11613 2.076172,0.1582 0.377641,0.023 0.755472,0.0474 1.134766,0.0645 1.068278,0.0477 2.14024,0.0801 3.220703,0.0801 h 26.789062 c -0.06284,-0.61227 -0.126623,-1.25091 -0.189453,-1.86328 0.0085,7.3e-4 0.01693,9.6e-4 0.02539,0.002 -1.02531,-10.4588 -2.050862,-19.94159 -3.076172,-30.40039 -0.57078,-1.221 -1.794246,-4.63988 -5.253906,-4.76368 -20.10994,-1.3995 -41.76367,-4.02198 -63.425782,-12.67578 z"
       id="path3764"
       inkscape:connector-curvature="0"
       transform="translate(222.47325,841.24689)" />
    <path
       style="fill:#ff4848;fill-opacity:1;stroke:none;stroke-width:0.99999994"
       d="m 405.56618,1090.7707 c 0,15.4656 -18.97357,28.0031 -42.37868,28.0031 -23.40508,0 -42.37866,-12.5375 -42.37866,-28.0031 29.16725,5.0821 54.16048,5.3906 84.75734,0 z"
       id="path3815"
       inkscape:connector-curvature="0"
       sodipodi:nodetypes="cscc" />
    <path
       sodipodi:type="star"
       style="fill:#fbec6d;fill-opacity:1;stroke:none"
       id="path3858"
       sodipodi:sides="4"
       sodipodi:cx="381.13055"
       sodipodi:cy="67.882248"
       sodipodi:r1="32.534595"
       sodipodi:r2="17.243336"
       sodipodi:arg1="0.83151928"
       sodipodi:arg2="1.6169174"
       inkscape:flatsided="false"
       inkscape:rounded="0.22"
       inkscape:randomized="0"
       d="m 403.05086,91.923877 c -3.85552,3.515334 -17.50332,-6.576077 -22.71531,-6.81663 -5.21198,-0.240553 -19.73129,8.550837 -23.24663,4.69531 -3.51533,-3.855527 6.57608,-17.503323 6.81663,-22.715308 0.24056,-5.211986 -8.55083,-19.731296 -4.69531,-23.246631 3.85553,-3.515333 17.50333,6.576077 22.71531,6.816631 5.21199,0.240553 19.7313,-8.550838 23.24663,-4.69531 3.51534,3.855527 -6.57607,17.503322 -6.81663,22.715308 -0.24055,5.211986 8.55084,19.731296 4.69531,23.24663 z"
       transform="matrix(0.2365396,0.13404239,-0.13404239,0.2365396,391.1366,903.28756)"
       inkscape:transform-center-x="0.69953692"
       inkscape:transform-center-y="-1.4843451" />
    <path
       inkscape:transform-center-y="-0.15460394"
       inkscape:transform-center-x="-0.61478652"
       transform="matrix(-0.06843174,0.07967978,-0.07967978,-0.06843174,497.01933,885.50467)"
       d="m 403.05086,91.923877 c -3.85552,3.515334 -17.50332,-6.576077 -22.71531,-6.81663 -5.21198,-0.240553 -19.73129,8.550837 -23.24663,4.69531 -3.51533,-3.855527 6.57608,-17.503323 6.81663,-22.715308 0.24056,-5.211986 -8.55083,-19.731296 -4.69531,-23.246631 3.85553,-3.515333 17.50333,6.576077 22.71531,6.816631 5.21199,0.240553 19.7313,-8.550838 23.24663,-4.69531 3.51534,3.855527 -6.57607,17.503322 -6.81663,22.715308 -0.24055,5.211986 8.55084,19.731296 4.69531,23.24663 z"
       inkscape:randomized="0"
       inkscape:rounded="0.22"
       inkscape:flatsided="false"
       sodipodi:arg2="1.6169174"
       sodipodi:arg1="0.83151928"
       sodipodi:r2="17.243336"
       sodipodi:r1="32.534595"
       sodipodi:cy="67.882248"
       sodipodi:cx="381.13055"
       sodipodi:sides="4"
       id="path3860"
       style="fill:#fbec6d;fill-opacity:1;stroke:none"
       sodipodi:type="star" />
    <circle
       style="fill:#fbec6d;fill-opacity:1;stroke:none"
       id="path3864"
       cx="292.04431"
       cy="877.16467"
       r="2.1213202" />
    <circle
       id="path3866"
       style="fill:#fbec6d;fill-opacity:1;stroke:none;stroke-width:4.33333349"
       cx="253.47325"
       cy="926.24689"
       r="9.1923885" />
    <circle
       id="path3872"
       style="fill:#fbec6d;fill-opacity:1;stroke:none;stroke-width:1.33333325"
       cx="292.78217"
       cy="916.2854"
       r="2.8284268" />
  </g>
  <g
     inkscape:groupmode="layer"
     id="layer2"
     inkscape:label="assets"
     style="display:none"
     transform="translate(-222.47325,-841.24689)">
    <path
       sodipodi:nodetypes="zzzzzzzzzzzz"
       inkscape:connector-curvature="0"
       id="path3793"
       d="M 856.94688,219.31124 C 812.03055,218.8237 763.81619,372.65546 645.51747,365.71848 527.21875,358.7815 524.09827,245.90406 440.82305,243.15335 357.54783,240.40264 330.3153,372.26088 225.1447,369.35719 119.9741,366.4535 57.57013,222.78998 20.42769,223.15335 c -37.14244,0.36337 -32.67209,258.92825 0,259.54628 32.672095,0.61803 73.879336,141.72779 204.71701,142.56513 130.83767,0.83734 133.31828,-121.58879 215.67835,-126.22644 82.36007,-4.63765 101.85674,131.72779 204.69442,122.56513 102.83768,-9.16266 185.14247,-124.32049 215.67834,-146.22644 30.53587,-21.90595 0.71986,-255.83637 0,-255.88497 -0.71987,-0.0486 40.6674,0.30674 -4.24893,-0.1808 z"
       style="fill:#efa85c;fill-opacity:1;stroke:none" />
  </g>
</svg>
